#!OML:ASF E:/inclinewalkrobotboard/Project1/Captureday1/Session1/subject1.ASF
:FULLY-SPECIFIED
:DEGREES
338
root 0 0 0 -1.4779208510159392 -1.5639321764333864 -3.974856172394122
lowerback 20.026638036229322 3.003914088427952 0.10069769593802524
upperback 2.2823451766359946 4.055805884864559 -0.5110313997213776
thorax -8.756296262273388 1.9523527054737122 -1.2669654736989406
lowerneck -8.563469161920185 -5.935008674604883 -1.4039685709653875
upperneck -1.2430469951553036 -8.549351372722661 5.69999822263591
head 1.294964335158868 -3.9235003833344084 1.4857183130733231
rclavicle -4.431465084071118E-16 1.165591959804077E-15
rhumerus 36.0759087242123 -5.044967674859501 -29.7029586144796
rradius 149.63944479793346
rwrist -23.32725498420959
rhand -19.69960501531293 -30.923291035302725
rfingers 7.12501999999996
rthumb 6.6557163416837515 -60.75317989343067
lclavicle -1.369520985352985E-15 1.2228986364378038E-15
lhumerus -47.37225558204219 -6.12044858858151 79.67290897313781
lradius 61.96246418933838
lwrist 10.872459521173369
lhand -14.636380032709496 -19.73641584296601
lfingers 7.125019999999863
lthumb 11.448753819623395 10.019282318330088
rfemur -2.4609994295732545 8.550363949310086 35.131017252256754
rtibia 29.440987502950343
rfoot -20.05816048854428 -8.072495283020041
rtoes 4.66761664386164
lfemur -26.09830624440622 0.8259670845795175 -17.651853543885636
ltibia 42.30215118765717
lfoot -2.5296454797101298 -4.316454928775312
ltoes 11.135439059643907
339
root 0 0 0 -1.4667179661598384 -1.540078590846251 -3.967995756706017
lowerback 20.109818768967255 2.983915645748107 0.05403723799485505
upperback 2.2798864464323003 4.026883317748323 -0.4886140649716333
thorax -8.803756593018907 1.9393858779188182 -1.2149364634505437
lowerneck -8.515011239267785 -5.936190904759643 -1.3674001691607895
upperneck -1.1228996971893164 -8.546723574178916 5.644759570170232
head 1.3379432557122062 -3.9230986579995655 1.4612659275010582
rclavicle -2.288482888957981E-16 1.0995055140908098E-15
rhumerus 35.712799966053886 -5.7411728262787145 -30.07805522503368
rradius 148.7396087466076
rwrist -22.509846344216346
rhand -19.806846041028265 -30.81444061825109
rfingers 7.125019999999964
rthumb 6.5535583467904726 -60.64922824803837
lclavicle -1.1804122547615962E-15 1.1499952516359039E-15
lhumerus -47.35681615877774 -6.097566891098897 79.62579508955149
lradius 61.944489422588674
lwrist 10.898444422198532
lhand -14.675152174264213 -19.668357805103206
lfingers 7.1250199999998625
lthumb 11.40907895393509 10.10293753914066
rfemur -5.331504078300758 8.276506546254808 34.67863619080277
rtibia 31.85735474050292
rfoot -18.473976358364624 -8.238008506176033
rtoes 4.640875387445485
lfemur -24.50317083831536 0.45399055715683545 -18.315675837841663
ltibia 40.9853197788386
lfoot -1.5663869790965173 -5.0630740049447
ltoes 11.98063526953122
340
root 0 0 0 -1.4494123521919438 -1.4847024048900033 -3.9617724175686586
lowerback 20.173829941682136 2.9571236816902537 -0.011229307423003543
upperback 2.274131172032444 3.988039021449312 -0.4536183868637731
thorax -8.84218643706621 1.9227105379236282 -1.1373959371855316
lowerneck -8.44426366613345 -5.945424951140197 -1.3323936227337045
upperneck -0.8654948536217582 -8.557000627222427 5.592226510587
head 1.4231830799287621 -3.9274341238651225 1.4359867787329468
rclavicle 3.5621292032767376E-17 8.673385169997869E-16
rhumerus 35.21214192807532 -6.55026908804349 -30.57746597200221
rradius 147.45154568917332
rwrist -21.501492538379527
rhand -19.876282683757793 -30.645903561133974
rfingers 7.1250199999999655
rthumb 6.4874629788220695 -60.48386334638466
lclavicle -9.695955486970389E-16 9.628343015304938E-16
lhumerus -47.33339433254591 -6.079671003105777 79.58731746878937
lradius 61.929218565916976
lwrist 10.926425090719194
lhand -14.713230792735411 -19.601290625022532
lfingers 7.125019999999861
lthumb 11.369495821618706 10.186385318120125
rfemur -9.485912904678017 7.900177377263297 34.07632759340656
rtibia 35.26101322850645
rfoot -16.298142609707114 -8.48771076163884
rtoes 5.07102290485412
lfemur -22.349767117446163 0.22061636507412707 -18.990039796600076
ltibia 40.9030386414996
lfoot -0.31572705839010595 -6.26907295693833
ltoes 12.189001384796015
341
root 0 0 0 -1.4291647310198574 -1.4093560489002463 -3.9552859773632374
lowerback 20.22788344382596 2.9202710610933185 -0.09827829736738125
upperback 2.2737182233897695 3.934956123068302 -0.40226048669328907
thorax -8.868041579225387 1.900242533627949 -1.0280687304127492
lowerneck -8.340384506375852 -5.959493083797604 -1.2927816353080455
upperneck -0.481151539359459 -8.572919264334228 5.530939462337592
head 1.5455675971564933 -3.934147287893464 1.405938325204398
rclavicle 3.733175427084701E-16 5.056046254434226E-16
rhumerus 34.48047632035401 -7.463898103056167 -31.2872298600618
rradius 145.66677241666957
rwrist -20.229399958243057
rhand -19.908500734614883 -30.39058050450021
rfingers 7.125019999999967
rthumb 6.456806376365289 -60.23060355863843
lclavicle -7.600782624641475E-16 7.117490672775459E-16
lhumerus -47.29883727524419 -6.072356317935717 79.56370882723039
lradius 61.91820782016409
lwrist 10.956908568478553
lhand -14.748337795392038 -19.533945457822888
lfingers 7.125019999999859
lthumb 11.33247319618009 10.269418475777965
rfemur -13.92513428258141 7.347170469354168 33.32218236715053
rtibia 39.50740335519938
rfoot -13.928474007737798 -8.704256445556801
rtoes 5.798064665384505
lfemur -19.938731597626138 0.05294461692321395 -19.597065990134645
ltibia 41.58638495976236
lfoot 1.072392904318317 -7.692355293088073
ltoes 11.778880305601795
